<?xml version="1.0" encoding="UTF-8"?>
<svg id="Ebene_2" xmlns="http://www.w3.org/2000/svg" viewBox="0 0 64 64">
  <defs>
    <style>
      .cls-1 {
        fill: none;
        stroke: #444;
        stroke-miterlimit: 10;
        stroke-width: 2px;
      }
    </style>
  </defs>
  <g>
    <path class="cls-1" d="M51.77,11h3.71c2.22,0,4.02,1.8,4.02,4.02v37.95c0,2.22-1.8,4.02-4.02,4.02H9.52c-2.22,0-4.02-1.8-4.02-4.02V15.02c0-2.22,1.8-4.02,4.02-4.02h4.52"/>
    <line class="cls-1" x1="21.71" y1="11" x2="42.27" y2="11"/>
    <line class="cls-1" x1="4.5" y1="22.96" x2="58.5" y2="22.96"/>
    <rect class="cls-1" x="13.5" y="7" width="8" height="8" rx="3.01" ry="3.01"/>
    <rect class="cls-1" x="42.5" y="7" width="8" height="8" rx="3.04" ry="3.04"/>
  </g>
  <g>
    <path class="cls-1" d="M24.74,35.28l7.22-7.59c.09-.1.25-.1.35,0l7.43,7.81-7.58,16.82c-.08.18-.33.17-.41,0l-7.02-17.03Z"/>
    <path class="cls-1" d="M39.24,36l13.19-4.4c.16-.05.32.06.32.23,0,2.19-.92,14.79-21,20.67"/>
    <path class="cls-1" d="M25.24,36l-13.67-4.39c-.16-.05-.33.07-.31.24.16,2.26,1.89,14.92,20.98,20.65"/>
  </g>
</svg>