<?xml version="1.0" encoding="UTF-8"?>
<svg id="Ebene_2" xmlns="http://www.w3.org/2000/svg" viewBox="0 0 64 64">
  <defs>
    <style>
      .cls-1 {
        fill: none;
        stroke: #444;
        stroke-miterlimit: 10;
        stroke-width: 2px;
      }
    </style>
  </defs>
  <circle class="cls-1" cx="31.93" cy="10.08" r="5.5"/>
  <path class="cls-1" d="M5.93,20.58h52.06s2.94,5-20.56,7.5c0,0-8.08,20.36-23.6,30.78-1.13.76-2.49-.56-1.75-1.71,4.08-6.3,16.3-18.29,13.24-29.07,0,0-20.4-.5-19.4-7.5Z"/>
  <path class="cls-1" d="M33.93,36.58l10.09,8.39c.57.38.91,1.02.91,1.71v11.4c0,.94-.93,1.59-1.82,1.27-1.18-.42-2.56-6.68-3.02-8.95-.11-.53-.42-.99-.87-1.29l-8.22-7.15"/>
</svg>