<?xml version="1.0" encoding="UTF-8"?>
<svg id="Ebene_2" xmlns="http://www.w3.org/2000/svg" viewBox="0 0 64 64">
  <defs>
    <style>
      .cls-1 {
        fill: none;
        stroke: #444;
        stroke-miterlimit: 10;
        stroke-width: 2px;
      }
    </style>
  </defs>
  <path class="cls-1" d="M53.1,18.22h6.1c.16,0,.29.13.29.29v36.41c0,.16-.13.29-.29.29H4.79c-.16,0-.29-.13-.29-.29V18.52c0-.16.13-.29.29-.29h4.6"/>
  <path class="cls-1" d="M47.76,13.22c2.68-.15,4.74-.06,5.46-.02.16,0,.27.14.27.3l-.4,36.86c0,.17-.14.29-.3.29-8.02-.4-19.67,4.13-20.72,4.54-.05.02-.11.02-.16.01l-1.3-.27s-.03,0-.04-.01c-.55-.22-12.52-4.96-20.73-4.57-.19,0-.34-.14-.35-.33l-.4-36.8c0-.17.13-.3.3-.3.74.01,2.78.07,5.43.35"/>
  <path class="cls-1" d="M31.6,55.45s-10.67-9.7-16.72-9.99c-.16,0-.28-.13-.28-.29V8.95c0-.19.17-.33.35-.29,2.26.46,14.76,3.24,16.95,8.96"/>
  <path class="cls-1" d="M32,55.22l-.09-37.13s0-.08.02-.12c2.24-5.66,13.99-8.86,16.21-9.41.19-.05.36.1.36.29v36.2c0,.16-.12.28-.28.29-6.03.29-15.72,9.89-15.72,9.89"/>
</svg>