<?xml version="1.0" encoding="UTF-8"?>
<svg id="Ebene_2" xmlns="http://www.w3.org/2000/svg" viewBox="0 0 64 64">
  <defs>
    <style>
      .cls-1 {
        fill: none;
        stroke: #444;
        stroke-miterlimit: 10;
        stroke-width: 2px;
      }
    </style>
  </defs>
  <g>
    <circle class="cls-1" cx="44.83" cy="19.12" r="6.5"/>
    <path class="cls-1" d="M57.81,46.12v-15.33c0-1.2-.97-2.17-2.17-2.17h-21.63c-1.2,0-2.17.97-2.17,2.17v.28"/>
    <path class="cls-1" d="M56.93,50.91l4,1c.99.25,1.29,1.56.46,2.16-.03.02-.05.04-.07.05-.97.46-6.65-.28-13.11-1.28"/>
    <line class="cls-1" x1="34.33" y1="45.24" x2="47" y2="48"/>
    <path class="cls-1" d="M36.07,54.53c6.06-.59,14.45-1.78,23.72-4.16,1.17-.3,1.9-1.46,1.69-2.65l-.04-.22c-.25-1.4-1.61-2.31-2.99-2.01l-21.13,4.55"/>
    <line class="cls-1" x1="37.33" y1="35.12" x2="37.33" y2="45.62"/>
    <line class="cls-1" x1="52.48" y1="35.12" x2="52.48" y2="46.78"/>
  </g>
  <g>
    <circle class="cls-1" cx="21" cy="22.5" r="6.5"/>
    <path class="cls-1" d="M8.01,48.32v-14.16c0-1.2.97-2.17,2.17-2.17h21.63c1.2,0,2.17.97,2.17,2.17v15.33"/>
    <path class="cls-1" d="M33.15,54.3l3.96.99c.99.25,1.29,1.56.46,2.16-.03.02-.05.04-.07.05-.97.46-6.61-.27-13.02-1.27"/>
    <path class="cls-1" d="M11,54c-1.53-.25-2.31-.32-3.5-.5-1.61-.24-4.67-2.85-4.07-4.37h0c.47-1.19,1.74-1.84,2.98-1.53l16,4.01"/>
    <path class="cls-1" d="M34.63,48.87l-31.02,6.68c-.7.15-1.19.79-1.17,1.5h0c.03.81.7,1.45,1.52,1.42,4.19-.13,16.93-.85,32.01-4.72,1.17-.3,1.9-1.46,1.69-2.65l-.04-.22c-.25-1.4-1.61-2.31-2.99-2.01Z"/>
    <line class="cls-1" x1="13.5" y1="38.5" x2="13.5" y2="49"/>
    <line class="cls-1" x1="28.66" y1="38.5" x2="28.66" y2="50.15"/>
  </g>
</svg>